<?xml version="1.0" encoding="UTF-8"?>
<!DOCTYPE svg PUBLIC "-//W3C//DTD SVG 1.1//EN" "http://www.w3.org/Graphics/SVG/1.1/DTD/svg11.dtd">
<!-- Creator: CorelDRAW -->
<svg xmlns="http://www.w3.org/2000/svg" xml:space="preserve" width="210mm" height="297mm" version="1.1" style="shape-rendering:geometricPrecision; text-rendering:geometricPrecision; image-rendering:optimizeQuality; fill-rule:evenodd; clip-rule:evenodd"
viewBox="0 0 21000 29700"
 xmlns:xlink="http://www.w3.org/1999/xlink"
 xmlns:xodm="http://www.corel.com/coreldraw/odm/2003">
 <defs>
  <style type="text/css">
   <![CDATA[
    .fil0 {fill:#0d1520}
   ]]>
  </style>
 </defs>
 <g id="Слой_x0020_1">
  <metadata id="CorelCorpID_0Corel-Layer"/>
  <g id="_1568088192416">
   <g>
    <path class="fil0" d="M26498.45 23795.95c-2674.97,-2674.96 -2674.97,-7011.94 0,-9686.9 2674.96,-2674.97 7011.94,-2674.97 9686.9,0 2674.97,2674.96 2674.97,7011.94 0,9686.9 -2674.96,2674.97 -7011.94,2674.97 -9686.9,0zm770.94 -770.98l0.02 0.02 0.02 0.02c1124.65,1124.64 2598.6,1686.98 4072.47,1686.98 1473.87,0 2947.82,-562.34 4072.47,-1686.98l0.02 -0.02 0.02 -0.02c1124.64,-1124.65 1686.98,-2598.6 1686.98,-4072.47 0,-1473.87 -562.34,-2947.82 -1686.98,-4072.47l-0.02 -0.02 -0.02 -0.02c-1124.65,-1124.64 -2598.6,-1686.98 -4072.47,-1686.98 -1473.87,0 -2947.82,562.34 -4072.47,1686.98l-0.02 0.02 -0.02 0.02c-1124.64,1124.65 -1686.98,2598.6 -1686.98,4072.47 0,1473.87 562.34,2947.82 1686.98,4072.47z"/>
   </g>
   <g>
    <rect class="fil0" transform="matrix(12.3198 -12.3198 4.78789 4.78789 28821 20688.8)" width="345.43" height="163.86"/>
    <polygon class="fil0" points="34796.86,15497.53 34784.27,16927.53 34771.49,18357.33 33354.27,16940.11 31937.05,15522.9 33366.86,15510.11 "/>
    <polygon class="fil0" points="27886.93,22407.46 29316.93,22394.87 30746.73,22382.09 29329.51,20964.87 27912.3,19547.65 27899.51,20977.46 "/>
   </g>
  </g>
 </g>
</svg>
